<?xml version="1.0" encoding="UTF-8" standalone="no"?>
<!DOCTYPE svg PUBLIC "-//W3C//DTD SVG 1.1//EN"
 "http://www.w3.org/Graphics/SVG/1.1/DTD/svg11.dtd">
<!-- Generated by graphviz version 2.47.0 (20210316.0004)
 -->
<!-- Title: dependencies Pages: 1 -->
<svg width="730pt" height="284pt"
 viewBox="0.00 0.00 730.00 284.00" xmlns="http://www.w3.org/2000/svg" xmlns:xlink="http://www.w3.org/1999/xlink">
<g id="graph0" class="graph" transform="scale(1 1) rotate(0) translate(4 280)">
<title>dependencies</title>
<polygon fill="white" stroke="transparent" points="-4,4 -4,-280 726,-280 726,4 -4,4"/>
<text text-anchor="start" x="340.01" y="-42.4" font-family="Times-12" font-weight="bold" font-size="14.00">Legend</text>
<polygon fill="#ffffb3" stroke="transparent" points="127,-10 127,-30 147,-30 147,-10 127,-10"/>
<text text-anchor="start" x="150.63" y="-15.4" font-family="Times-12" font-size="14.00"> &#160;Declarations</text>
<polygon fill="#8dd3c7" stroke="transparent" points="240,-10 240,-30 260,-30 260,-10 240,-10"/>
<text text-anchor="start" x="263.73" y="-15.4" font-family="Times-12" font-size="14.00"> &#160;Module</text>
<polygon fill="#80b1d3" stroke="transparent" points="326,-10 326,-30 346,-30 346,-10 326,-10"/>
<text text-anchor="start" x="349.78" y="-15.4" font-family="Times-12" font-size="14.00"> &#160;Bootstrap</text>
<polygon fill="#fdb462" stroke="transparent" points="423,-10 423,-30 443,-30 443,-10 423,-10"/>
<text text-anchor="start" x="446.67" y="-15.4" font-family="Times-12" font-size="14.00"> &#160;Providers</text>
<polygon fill="#fb8072" stroke="transparent" points="519,-10 519,-30 539,-30 539,-10 519,-10"/>
<text text-anchor="start" x="542.73" y="-15.4" font-family="Times-12" font-size="14.00"> &#160;Exports</text>
<g id="clust1" class="cluster">
<title>cluster_PaymentGatewayModule</title>
<polygon fill="none" stroke="black" stroke-dasharray="1,5" points="8,-70 8,-268 714,-268 714,-70 8,-70"/>
</g>
<g id="clust6" class="cluster">
<title>cluster_PaymentGatewayModule_providers</title>
<polygon fill="none" stroke="black" points="16,-78 16,-130 706,-130 706,-78 16,-78"/>
</g>
<g id="clust4" class="cluster">
<title>cluster_PaymentGatewayModule_exports</title>
<polygon fill="none" stroke="black" points="266,-208 266,-260 442,-260 442,-208 266,-208"/>
</g>
<!-- PaymentGatewayService  -->
<g id="node1" class="node">
<title>PaymentGatewayService </title>
<polygon fill="#fb8072" stroke="black" points="434.22,-252 273.78,-252 273.78,-216 434.22,-216 434.22,-252"/>
<text text-anchor="middle" x="354" y="-229.8" font-family="Times,serif" font-size="14.00">PaymentGatewayService </text>
</g>
<!-- PaymentGatewayModule -->
<g id="node2" class="node">
<title>PaymentGatewayModule</title>
<polygon fill="#8dd3c7" stroke="black" points="433.29,-187 430.29,-191 409.29,-191 406.29,-187 274.71,-187 274.71,-151 433.29,-151 433.29,-187"/>
<text text-anchor="middle" x="354" y="-164.8" font-family="Times,serif" font-size="14.00">PaymentGatewayModule</text>
</g>
<!-- PaymentGatewayModule&#45;&gt;PaymentGatewayService  -->
<g id="edge1" class="edge">
<title>PaymentGatewayModule&#45;&gt;PaymentGatewayService </title>
<path fill="none" stroke="black" stroke-dasharray="5,2" d="M354,-187.11C354,-187.11 354,-205.99 354,-205.99"/>
<polygon fill="black" stroke="black" points="350.5,-205.99 354,-215.99 357.5,-205.99 350.5,-205.99"/>
</g>
<!-- PaymentGatewayFactory -->
<g id="node3" class="node">
<title>PaymentGatewayFactory</title>
<ellipse fill="#fdb462" stroke="black" cx="589" cy="-104" rx="108.79" ry="18"/>
<text text-anchor="middle" x="589" y="-99.8" font-family="Times,serif" font-size="14.00">PaymentGatewayFactory</text>
</g>
<!-- PaymentGatewayFactory&#45;&gt;PaymentGatewayModule -->
<g id="edge2" class="edge">
<title>PaymentGatewayFactory&#45;&gt;PaymentGatewayModule</title>
<path fill="none" stroke="black" d="M589,-122.11C589,-141.34 589,-169 589,-169 589,-169 443.23,-169 443.23,-169"/>
<polygon fill="black" stroke="black" points="443.23,-165.5 433.23,-169 443.23,-172.5 443.23,-165.5"/>
</g>
<!-- PaymentGatewayService -->
<g id="node4" class="node">
<title>PaymentGatewayService</title>
<ellipse fill="#fdb462" stroke="black" cx="354" cy="-104" rx="108.2" ry="18"/>
<text text-anchor="middle" x="354" y="-99.8" font-family="Times,serif" font-size="14.00">PaymentGatewayService</text>
</g>
<!-- PaymentGatewayService&#45;&gt;PaymentGatewayModule -->
<g id="edge3" class="edge">
<title>PaymentGatewayService&#45;&gt;PaymentGatewayModule</title>
<path fill="none" stroke="black" d="M354,-122.11C354,-122.11 354,-140.99 354,-140.99"/>
<polygon fill="black" stroke="black" points="350.5,-140.99 354,-150.99 357.5,-140.99 350.5,-140.99"/>
</g>
<!-- StripePaymentGateway -->
<g id="node5" class="node">
<title>StripePaymentGateway</title>
<ellipse fill="#fdb462" stroke="black" cx="126" cy="-104" rx="102.42" ry="18"/>
<text text-anchor="middle" x="126" y="-99.8" font-family="Times,serif" font-size="14.00">StripePaymentGateway</text>
</g>
<!-- StripePaymentGateway&#45;&gt;PaymentGatewayModule -->
<g id="edge4" class="edge">
<title>StripePaymentGateway&#45;&gt;PaymentGatewayModule</title>
<path fill="none" stroke="black" d="M126,-122.11C126,-141.34 126,-169 126,-169 126,-169 264.58,-169 264.58,-169"/>
<polygon fill="black" stroke="black" points="264.58,-172.5 274.58,-169 264.58,-165.5 264.58,-172.5"/>
</g>
</g>
</svg>
