<?xml version="1.0" encoding="UTF-8" standalone="no"?>
<!DOCTYPE svg PUBLIC "-//W3C//DTD SVG 1.1//EN"
 "http://www.w3.org/Graphics/SVG/1.1/DTD/svg11.dtd">
<!-- Generated by graphviz version 2.47.0 (20210316.0004)
 -->
<!-- Title: dependencies Pages: 1 -->
<svg width="504pt" height="284pt"
 viewBox="0.00 0.00 504.00 284.00" xmlns="http://www.w3.org/2000/svg" xmlns:xlink="http://www.w3.org/1999/xlink">
<g id="graph0" class="graph" transform="scale(1 1) rotate(0) translate(4 280)">
<title>dependencies</title>
<polygon fill="white" stroke="transparent" points="-4,4 -4,-280 500,-280 500,4 -4,4"/>
<text text-anchor="start" x="227.01" y="-42.4" font-family="Times-12" font-weight="bold" font-size="14.00">Legend</text>
<polygon fill="#ffffb3" stroke="transparent" points="14,-10 14,-30 34,-30 34,-10 14,-10"/>
<text text-anchor="start" x="37.63" y="-15.4" font-family="Times-12" font-size="14.00"> &#160;Declarations</text>
<polygon fill="#8dd3c7" stroke="transparent" points="127,-10 127,-30 147,-30 147,-10 127,-10"/>
<text text-anchor="start" x="150.73" y="-15.4" font-family="Times-12" font-size="14.00"> &#160;Module</text>
<polygon fill="#80b1d3" stroke="transparent" points="213,-10 213,-30 233,-30 233,-10 213,-10"/>
<text text-anchor="start" x="236.78" y="-15.4" font-family="Times-12" font-size="14.00"> &#160;Bootstrap</text>
<polygon fill="#fdb462" stroke="transparent" points="310,-10 310,-30 330,-30 330,-10 310,-10"/>
<text text-anchor="start" x="333.67" y="-15.4" font-family="Times-12" font-size="14.00"> &#160;Providers</text>
<polygon fill="#fb8072" stroke="transparent" points="406,-10 406,-30 426,-30 426,-10 406,-10"/>
<text text-anchor="start" x="429.73" y="-15.4" font-family="Times-12" font-size="14.00"> &#160;Exports</text>
<g id="clust1" class="cluster">
<title>cluster_PartnersModule</title>
<polygon fill="none" stroke="black" stroke-dasharray="1,5" points="100,-70 100,-268 396,-268 396,-70 100,-70"/>
</g>
<g id="clust4" class="cluster">
<title>cluster_PartnersModule_exports</title>
<polygon fill="none" stroke="black" points="108,-208 108,-260 232,-260 232,-208 108,-208"/>
</g>
<g id="clust6" class="cluster">
<title>cluster_PartnersModule_providers</title>
<polygon fill="none" stroke="black" points="228,-78 228,-130 388,-130 388,-78 228,-78"/>
</g>
<g id="clust3" class="cluster">
<title>cluster_PartnersModule_imports</title>
<polygon fill="none" stroke="black" points="108,-78 108,-130 220,-130 220,-78 108,-78"/>
</g>
<!-- TeamsModule -->
<g id="node1" class="node">
<title>TeamsModule</title>
<polygon fill="#8dd3c7" stroke="black" points="212.37,-122 209.37,-126 188.37,-126 185.37,-122 115.63,-122 115.63,-86 212.37,-86 212.37,-122"/>
<text text-anchor="middle" x="164" y="-99.8" font-family="Times,serif" font-size="14.00">TeamsModule</text>
</g>
<!-- PartnersModule -->
<g id="node2" class="node">
<title>PartnersModule</title>
<polygon fill="#8dd3c7" stroke="black" points="219.92,-187 216.92,-191 195.92,-191 192.92,-187 114.08,-187 114.08,-151 219.92,-151 219.92,-187"/>
<text text-anchor="middle" x="167" y="-164.8" font-family="Times,serif" font-size="14.00">PartnersModule</text>
</g>
<!-- TeamsModule&#45;&gt;PartnersModule -->
<g id="edge1" class="edge">
<title>TeamsModule&#45;&gt;PartnersModule</title>
<path fill="none" stroke="black" d="M147.86,-122.11C147.86,-122.11 147.86,-140.99 147.86,-140.99"/>
<polygon fill="black" stroke="black" points="144.36,-140.99 147.86,-150.99 151.36,-140.99 144.36,-140.99"/>
</g>
<!-- TeamsModule&#45;&gt;PartnersModule -->
<g id="edge2" class="edge">
<title>TeamsModule&#45;&gt;PartnersModule</title>
<path fill="none" stroke="black" d="M180.14,-122.11C180.14,-122.11 180.14,-140.99 180.14,-140.99"/>
<polygon fill="black" stroke="black" points="176.64,-140.99 180.14,-150.99 183.64,-140.99 176.64,-140.99"/>
</g>
<!-- PartnersService  -->
<g id="node3" class="node">
<title>PartnersService </title>
<polygon fill="#fb8072" stroke="black" points="223.85,-252 116.15,-252 116.15,-216 223.85,-216 223.85,-252"/>
<text text-anchor="middle" x="170" y="-229.8" font-family="Times,serif" font-size="14.00">PartnersService </text>
</g>
<!-- PartnersModule&#45;&gt;PartnersService  -->
<g id="edge3" class="edge">
<title>PartnersModule&#45;&gt;PartnersService </title>
<path fill="none" stroke="black" stroke-dasharray="5,2" d="M168.02,-187.11C168.02,-187.11 168.02,-205.99 168.02,-205.99"/>
<polygon fill="black" stroke="black" points="164.52,-205.99 168.02,-215.99 171.52,-205.99 164.52,-205.99"/>
</g>
<!-- PartnersService -->
<g id="node4" class="node">
<title>PartnersService</title>
<ellipse fill="#fdb462" stroke="black" cx="308" cy="-104" rx="71.76" ry="18"/>
<text text-anchor="middle" x="308" y="-99.8" font-family="Times,serif" font-size="14.00">PartnersService</text>
</g>
<!-- PartnersService&#45;&gt;PartnersModule -->
<g id="edge4" class="edge">
<title>PartnersService&#45;&gt;PartnersModule</title>
<path fill="none" stroke="black" d="M236.02,-104C224.39,-104 216.07,-104 216.07,-104 216.07,-104 216.07,-140.89 216.07,-140.89"/>
<polygon fill="black" stroke="black" points="212.57,-140.89 216.07,-150.89 219.57,-140.89 212.57,-140.89"/>
</g>
</g>
</svg>
