<?xml version="1.0" encoding="UTF-8" standalone="no"?>
<!DOCTYPE svg PUBLIC "-//W3C//DTD SVG 1.1//EN"
 "http://www.w3.org/Graphics/SVG/1.1/DTD/svg11.dtd">
<!-- Generated by graphviz version 2.47.0 (20210316.0004)
 -->
<!-- Title: dependencies Pages: 1 -->
<svg width="504pt" height="284pt"
 viewBox="0.00 0.00 504.00 284.00" xmlns="http://www.w3.org/2000/svg" xmlns:xlink="http://www.w3.org/1999/xlink">
<g id="graph0" class="graph" transform="scale(1 1) rotate(0) translate(4 280)">
<title>dependencies</title>
<polygon fill="white" stroke="transparent" points="-4,4 -4,-280 500,-280 500,4 -4,4"/>
<text text-anchor="start" x="227.01" y="-42.4" font-family="Times-12" font-weight="bold" font-size="14.00">Legend</text>
<polygon fill="#ffffb3" stroke="transparent" points="14,-10 14,-30 34,-30 34,-10 14,-10"/>
<text text-anchor="start" x="37.63" y="-15.4" font-family="Times-12" font-size="14.00"> &#160;Declarations</text>
<polygon fill="#8dd3c7" stroke="transparent" points="127,-10 127,-30 147,-30 147,-10 127,-10"/>
<text text-anchor="start" x="150.73" y="-15.4" font-family="Times-12" font-size="14.00"> &#160;Module</text>
<polygon fill="#80b1d3" stroke="transparent" points="213,-10 213,-30 233,-30 233,-10 213,-10"/>
<text text-anchor="start" x="236.78" y="-15.4" font-family="Times-12" font-size="14.00"> &#160;Bootstrap</text>
<polygon fill="#fdb462" stroke="transparent" points="310,-10 310,-30 330,-30 330,-10 310,-10"/>
<text text-anchor="start" x="333.67" y="-15.4" font-family="Times-12" font-size="14.00"> &#160;Providers</text>
<polygon fill="#fb8072" stroke="transparent" points="406,-10 406,-30 426,-30 426,-10 406,-10"/>
<text text-anchor="start" x="429.73" y="-15.4" font-family="Times-12" font-size="14.00"> &#160;Exports</text>
<g id="clust1" class="cluster">
<title>cluster_AuthModule</title>
<polygon fill="none" stroke="black" stroke-dasharray="1,5" points="53.5,-70 53.5,-268 442.5,-268 442.5,-70 53.5,-70"/>
</g>
<g id="clust6" class="cluster">
<title>cluster_AuthModule_providers</title>
<polygon fill="none" stroke="black" points="300.5,-78 300.5,-130 434.5,-130 434.5,-78 300.5,-78"/>
</g>
<g id="clust3" class="cluster">
<title>cluster_AuthModule_imports</title>
<polygon fill="none" stroke="black" points="61.5,-78 61.5,-130 292.5,-130 292.5,-78 61.5,-78"/>
</g>
<g id="clust4" class="cluster">
<title>cluster_AuthModule_exports</title>
<polygon fill="none" stroke="black" points="178.5,-208 178.5,-260 284.5,-260 284.5,-208 178.5,-208"/>
</g>
<!-- PartnersModule -->
<g id="node1" class="node">
<title>PartnersModule</title>
<polygon fill="#8dd3c7" stroke="black" points="284.42,-122 281.42,-126 260.42,-126 257.42,-122 178.58,-122 178.58,-86 284.42,-86 284.42,-122"/>
<text text-anchor="middle" x="231.5" y="-99.8" font-family="Times,serif" font-size="14.00">PartnersModule</text>
</g>
<!-- AuthModule -->
<g id="node3" class="node">
<title>AuthModule</title>
<polygon fill="#8dd3c7" stroke="black" points="275.05,-187 272.05,-191 251.05,-191 248.05,-187 187.95,-187 187.95,-151 275.05,-151 275.05,-187"/>
<text text-anchor="middle" x="231.5" y="-164.8" font-family="Times,serif" font-size="14.00">AuthModule</text>
</g>
<!-- PartnersModule&#45;&gt;AuthModule -->
<g id="edge1" class="edge">
<title>PartnersModule&#45;&gt;AuthModule</title>
<path fill="none" stroke="black" d="M231.5,-122.11C231.5,-122.11 231.5,-140.99 231.5,-140.99"/>
<polygon fill="black" stroke="black" points="228,-140.99 231.5,-150.99 235,-140.99 228,-140.99"/>
</g>
<!-- UsersModule -->
<g id="node2" class="node">
<title>UsersModule</title>
<polygon fill="#8dd3c7" stroke="black" points="161.42,-122 158.42,-126 137.42,-126 134.42,-122 69.58,-122 69.58,-86 161.42,-86 161.42,-122"/>
<text text-anchor="middle" x="115.5" y="-99.8" font-family="Times,serif" font-size="14.00">UsersModule</text>
</g>
<!-- UsersModule&#45;&gt;AuthModule -->
<g id="edge2" class="edge">
<title>UsersModule&#45;&gt;AuthModule</title>
<path fill="none" stroke="black" d="M115.5,-122.11C115.5,-141.34 115.5,-169 115.5,-169 115.5,-169 177.65,-169 177.65,-169"/>
<polygon fill="black" stroke="black" points="177.65,-172.5 187.65,-169 177.65,-165.5 177.65,-172.5"/>
</g>
<!-- AuthService  -->
<g id="node4" class="node">
<title>AuthService </title>
<polygon fill="#fb8072" stroke="black" points="276.48,-252 186.52,-252 186.52,-216 276.48,-216 276.48,-252"/>
<text text-anchor="middle" x="231.5" y="-229.8" font-family="Times,serif" font-size="14.00">AuthService </text>
</g>
<!-- AuthModule&#45;&gt;AuthService  -->
<g id="edge3" class="edge">
<title>AuthModule&#45;&gt;AuthService </title>
<path fill="none" stroke="black" stroke-dasharray="5,2" d="M231.5,-187.11C231.5,-187.11 231.5,-205.99 231.5,-205.99"/>
<polygon fill="black" stroke="black" points="228,-205.99 231.5,-215.99 235,-205.99 228,-205.99"/>
</g>
<!-- AuthService -->
<g id="node5" class="node">
<title>AuthService</title>
<ellipse fill="#fdb462" stroke="black" cx="367.5" cy="-104" rx="59.11" ry="18"/>
<text text-anchor="middle" x="367.5" y="-99.8" font-family="Times,serif" font-size="14.00">AuthService</text>
</g>
<!-- AuthService&#45;&gt;AuthModule -->
<g id="edge4" class="edge">
<title>AuthService&#45;&gt;AuthModule</title>
<path fill="none" stroke="black" d="M367.5,-122.11C367.5,-141.34 367.5,-169 367.5,-169 367.5,-169 285.28,-169 285.28,-169"/>
<polygon fill="black" stroke="black" points="285.28,-165.5 275.28,-169 285.28,-172.5 285.28,-165.5"/>
</g>
</g>
</svg>
