<?xml version="1.0" encoding="UTF-8" standalone="no"?>
<!DOCTYPE svg PUBLIC "-//W3C//DTD SVG 1.1//EN"
 "http://www.w3.org/Graphics/SVG/1.1/DTD/svg11.dtd">
<!-- Generated by graphviz version 2.47.0 (20210316.0004)
 -->
<!-- Title: dependencies Pages: 1 -->
<svg width="2064pt" height="211pt"
 viewBox="0.00 0.00 2064.00 211.00" xmlns="http://www.w3.org/2000/svg" xmlns:xlink="http://www.w3.org/1999/xlink">
<g id="graph0" class="graph" transform="scale(1 1) rotate(0) translate(4 207)">
<title>dependencies</title>
<polygon fill="white" stroke="transparent" points="-4,4 -4,-207 2060,-207 2060,4 -4,4"/>
<text text-anchor="start" x="1007.01" y="-42.4" font-family="Times-12" font-weight="bold" font-size="14.00">Legend</text>
<polygon fill="#ffffb3" stroke="transparent" points="794,-10 794,-30 814,-30 814,-10 794,-10"/>
<text text-anchor="start" x="817.63" y="-15.4" font-family="Times-12" font-size="14.00"> &#160;Declarations</text>
<polygon fill="#8dd3c7" stroke="transparent" points="907,-10 907,-30 927,-30 927,-10 907,-10"/>
<text text-anchor="start" x="930.73" y="-15.4" font-family="Times-12" font-size="14.00"> &#160;Module</text>
<polygon fill="#80b1d3" stroke="transparent" points="993,-10 993,-30 1013,-30 1013,-10 993,-10"/>
<text text-anchor="start" x="1016.78" y="-15.4" font-family="Times-12" font-size="14.00"> &#160;Bootstrap</text>
<polygon fill="#fdb462" stroke="transparent" points="1090,-10 1090,-30 1110,-30 1110,-10 1090,-10"/>
<text text-anchor="start" x="1113.67" y="-15.4" font-family="Times-12" font-size="14.00"> &#160;Providers</text>
<polygon fill="#fb8072" stroke="transparent" points="1186,-10 1186,-30 1206,-30 1206,-10 1186,-10"/>
<text text-anchor="start" x="1209.73" y="-15.4" font-family="Times-12" font-size="14.00"> &#160;Exports</text>
<g id="clust1" class="cluster">
<title>cluster_AppModule</title>
<polygon fill="none" stroke="black" stroke-dasharray="1,5" points="8,-70 8,-195 2048,-195 2048,-70 8,-70"/>
</g>
<g id="clust3" class="cluster">
<title>cluster_AppModule_imports</title>
<polygon fill="none" stroke="black" points="16,-78 16,-130 2040,-130 2040,-78 16,-78"/>
</g>
<!-- AuthModule -->
<g id="node1" class="node">
<title>AuthModule</title>
<polygon fill="#8dd3c7" stroke="black" points="2031.55,-122 2028.55,-126 2007.55,-126 2004.55,-122 1944.45,-122 1944.45,-86 2031.55,-86 2031.55,-122"/>
<text text-anchor="middle" x="1988" y="-99.8" font-family="Times,serif" font-size="14.00">AuthModule</text>
</g>
<!-- AppModule -->
<g id="node17" class="node">
<title>AppModule</title>
<polygon fill="#8dd3c7" stroke="black" points="1093.66,-187 1090.66,-191 1069.66,-191 1066.66,-187 1010.34,-187 1010.34,-151 1093.66,-151 1093.66,-187"/>
<text text-anchor="middle" x="1052" y="-164.8" font-family="Times,serif" font-size="14.00">AppModule</text>
</g>
<!-- AuthModule&#45;&gt;AppModule -->
<g id="edge1" class="edge">
<title>AuthModule&#45;&gt;AppModule</title>
<path fill="none" stroke="black" d="M2002.59,-122.32C2002.59,-145.66 2002.59,-183 2002.59,-183 2002.59,-183 1103.76,-183 1103.76,-183"/>
<polygon fill="black" stroke="black" points="1103.76,-179.5 1093.76,-183 1103.76,-186.5 1103.76,-179.5"/>
</g>
<!-- AuthModule&#45;&gt;AppModule -->
<g id="edge2" class="edge">
<title>AuthModule&#45;&gt;AppModule</title>
<path fill="none" stroke="black" d="M1973.41,-122.16C1973.41,-144.35 1973.41,-179 1973.41,-179 1973.41,-179 1103.68,-179 1103.68,-179"/>
<polygon fill="black" stroke="black" points="1103.68,-175.5 1093.68,-179 1103.68,-182.5 1103.68,-175.5"/>
</g>
<!-- CustomI18nModule -->
<g id="node2" class="node">
<title>CustomI18nModule</title>
<polygon fill="#8dd3c7" stroke="black" points="1926.27,-122 1923.27,-126 1902.27,-126 1899.27,-122 1797.73,-122 1797.73,-86 1926.27,-86 1926.27,-122"/>
<text text-anchor="middle" x="1862" y="-99.8" font-family="Times,serif" font-size="14.00">CustomI18nModule</text>
</g>
<!-- CustomI18nModule&#45;&gt;AppModule -->
<g id="edge3" class="edge">
<title>CustomI18nModule&#45;&gt;AppModule</title>
<path fill="none" stroke="black" d="M1862,-122.28C1862,-143.32 1862,-175 1862,-175 1862,-175 1103.84,-175 1103.84,-175"/>
<polygon fill="black" stroke="black" points="1103.84,-171.5 1093.84,-175 1103.84,-178.5 1103.84,-171.5"/>
</g>
<!-- FileModule -->
<g id="node3" class="node">
<title>FileModule</title>
<polygon fill="#8dd3c7" stroke="black" points="1779.83,-122 1776.83,-126 1755.83,-126 1752.83,-122 1698.17,-122 1698.17,-86 1779.83,-86 1779.83,-122"/>
<text text-anchor="middle" x="1739" y="-99.8" font-family="Times,serif" font-size="14.00">FileModule</text>
</g>
<!-- FileModule&#45;&gt;AppModule -->
<g id="edge4" class="edge">
<title>FileModule&#45;&gt;AppModule</title>
<path fill="none" stroke="black" d="M1739,-122.31C1739,-142.15 1739,-171 1739,-171 1739,-171 1103.68,-171 1103.68,-171"/>
<polygon fill="black" stroke="black" points="1103.68,-167.5 1093.68,-171 1103.68,-174.5 1103.68,-167.5"/>
</g>
<!-- FollowersModule -->
<g id="node4" class="node">
<title>FollowersModule</title>
<polygon fill="#8dd3c7" stroke="black" points="1680.54,-122 1677.54,-126 1656.54,-126 1653.54,-122 1565.46,-122 1565.46,-86 1680.54,-86 1680.54,-122"/>
<text text-anchor="middle" x="1623" y="-99.8" font-family="Times,serif" font-size="14.00">FollowersModule</text>
</g>
<!-- FollowersModule&#45;&gt;AppModule -->
<g id="edge5" class="edge">
<title>FollowersModule&#45;&gt;AppModule</title>
<path fill="none" stroke="black" d="M1623,-122.22C1623,-140.83 1623,-167 1623,-167 1623,-167 1103.99,-167 1103.99,-167"/>
<polygon fill="black" stroke="black" points="1103.99,-163.5 1093.99,-167 1103.99,-170.5 1103.99,-163.5"/>
</g>
<!-- NotificationsModule -->
<g id="node5" class="node">
<title>NotificationsModule</title>
<polygon fill="#8dd3c7" stroke="black" points="1547.14,-122 1544.14,-126 1523.14,-126 1520.14,-122 1414.86,-122 1414.86,-86 1547.14,-86 1547.14,-122"/>
<text text-anchor="middle" x="1481" y="-99.8" font-family="Times,serif" font-size="14.00">NotificationsModule</text>
</g>
<!-- NotificationsModule&#45;&gt;AppModule -->
<g id="edge6" class="edge">
<title>NotificationsModule&#45;&gt;AppModule</title>
<path fill="none" stroke="black" d="M1481,-122.02C1481,-139.37 1481,-163 1481,-163 1481,-163 1103.92,-163 1103.92,-163"/>
<polygon fill="black" stroke="black" points="1103.92,-159.5 1093.92,-163 1103.92,-166.5 1103.92,-159.5"/>
</g>
<!-- PartnersModule -->
<g id="node6" class="node">
<title>PartnersModule</title>
<polygon fill="#8dd3c7" stroke="black" points="1396.92,-122 1393.92,-126 1372.92,-126 1369.92,-122 1291.08,-122 1291.08,-86 1396.92,-86 1396.92,-122"/>
<text text-anchor="middle" x="1344" y="-99.8" font-family="Times,serif" font-size="14.00">PartnersModule</text>
</g>
<!-- PartnersModule&#45;&gt;AppModule -->
<g id="edge7" class="edge">
<title>PartnersModule&#45;&gt;AppModule</title>
<path fill="none" stroke="black" d="M1344,-122.01C1344,-138.05 1344,-159 1344,-159 1344,-159 1103.84,-159 1103.84,-159"/>
<polygon fill="black" stroke="black" points="1103.84,-155.5 1093.84,-159 1103.84,-162.5 1103.84,-155.5"/>
</g>
<!-- PaymentGatewayModule -->
<g id="node7" class="node">
<title>PaymentGatewayModule</title>
<polygon fill="#8dd3c7" stroke="black" points="1273.29,-122 1270.29,-126 1249.29,-126 1246.29,-122 1114.71,-122 1114.71,-86 1273.29,-86 1273.29,-122"/>
<text text-anchor="middle" x="1194" y="-99.8" font-family="Times,serif" font-size="14.00">PaymentGatewayModule</text>
</g>
<!-- PaymentGatewayModule&#45;&gt;AppModule -->
<g id="edge8" class="edge">
<title>PaymentGatewayModule&#45;&gt;AppModule</title>
<path fill="none" stroke="black" d="M1194,-122.12C1194,-136.78 1194,-155 1194,-155 1194,-155 1103.84,-155 1103.84,-155"/>
<polygon fill="black" stroke="black" points="1103.84,-151.5 1093.84,-155 1103.84,-158.5 1103.84,-151.5"/>
</g>
<!-- PlansModule -->
<g id="node8" class="node">
<title>PlansModule</title>
<polygon fill="#8dd3c7" stroke="black" points="1096.88,-122 1093.88,-126 1072.88,-126 1069.88,-122 1007.12,-122 1007.12,-86 1096.88,-86 1096.88,-122"/>
<text text-anchor="middle" x="1052" y="-99.8" font-family="Times,serif" font-size="14.00">PlansModule</text>
</g>
<!-- PlansModule&#45;&gt;AppModule -->
<g id="edge9" class="edge">
<title>PlansModule&#45;&gt;AppModule</title>
<path fill="none" stroke="black" d="M1052,-122.11C1052,-122.11 1052,-140.99 1052,-140.99"/>
<polygon fill="black" stroke="black" points="1048.5,-140.99 1052,-150.99 1055.5,-140.99 1048.5,-140.99"/>
</g>
<!-- ProductsModule -->
<g id="node9" class="node">
<title>ProductsModule</title>
<polygon fill="#8dd3c7" stroke="black" points="989.04,-122 986.04,-126 965.04,-126 962.04,-122 880.96,-122 880.96,-86 989.04,-86 989.04,-122"/>
<text text-anchor="middle" x="935" y="-99.8" font-family="Times,serif" font-size="14.00">ProductsModule</text>
</g>
<!-- ProductsModule&#45;&gt;AppModule -->
<g id="edge10" class="edge">
<title>ProductsModule&#45;&gt;AppModule</title>
<path fill="none" stroke="black" d="M935,-122.12C935,-136.78 935,-155 935,-155 935,-155 1000.09,-155 1000.09,-155"/>
<polygon fill="black" stroke="black" points="1000.09,-158.5 1010.09,-155 1000.09,-151.5 1000.09,-158.5"/>
</g>
<!-- ReviewsModule -->
<g id="node10" class="node">
<title>ReviewsModule</title>
<polygon fill="#8dd3c7" stroke="black" points="862.76,-122 859.76,-126 838.76,-126 835.76,-122 755.24,-122 755.24,-86 862.76,-86 862.76,-122"/>
<text text-anchor="middle" x="809" y="-99.8" font-family="Times,serif" font-size="14.00">ReviewsModule</text>
</g>
<!-- ReviewsModule&#45;&gt;AppModule -->
<g id="edge11" class="edge">
<title>ReviewsModule&#45;&gt;AppModule</title>
<path fill="none" stroke="black" d="M809,-122.01C809,-138.05 809,-159 809,-159 809,-159 1000.23,-159 1000.23,-159"/>
<polygon fill="black" stroke="black" points="1000.23,-162.5 1010.23,-159 1000.23,-155.5 1000.23,-162.5"/>
</g>
<!-- RolesModule -->
<g id="node11" class="node">
<title>RolesModule</title>
<polygon fill="#8dd3c7" stroke="black" points="736.94,-122 733.94,-126 712.94,-126 709.94,-122 645.06,-122 645.06,-86 736.94,-86 736.94,-122"/>
<text text-anchor="middle" x="691" y="-99.8" font-family="Times,serif" font-size="14.00">RolesModule</text>
</g>
<!-- RolesModule&#45;&gt;AppModule -->
<g id="edge12" class="edge">
<title>RolesModule&#45;&gt;AppModule</title>
<path fill="none" stroke="black" d="M691,-122.02C691,-139.37 691,-163 691,-163 691,-163 1000.24,-163 1000.24,-163"/>
<polygon fill="black" stroke="black" points="1000.24,-166.5 1010.24,-163 1000.24,-159.5 1000.24,-166.5"/>
</g>
<!-- SubscribersModule -->
<g id="node12" class="node">
<title>SubscribersModule</title>
<polygon fill="#8dd3c7" stroke="black" points="627.36,-122 624.36,-126 603.36,-126 600.36,-122 502.64,-122 502.64,-86 627.36,-86 627.36,-122"/>
<text text-anchor="middle" x="565" y="-99.8" font-family="Times,serif" font-size="14.00">SubscribersModule</text>
</g>
<!-- SubscribersModule&#45;&gt;AppModule -->
<g id="edge13" class="edge">
<title>SubscribersModule&#45;&gt;AppModule</title>
<path fill="none" stroke="black" d="M565,-122.22C565,-140.83 565,-167 565,-167 565,-167 1000.06,-167 1000.06,-167"/>
<polygon fill="black" stroke="black" points="1000.06,-170.5 1010.06,-167 1000.06,-163.5 1000.06,-170.5"/>
</g>
<!-- TagsModule -->
<g id="node13" class="node">
<title>TagsModule</title>
<polygon fill="#8dd3c7" stroke="black" points="484.26,-122 481.26,-126 460.26,-126 457.26,-122 397.74,-122 397.74,-86 484.26,-86 484.26,-122"/>
<text text-anchor="middle" x="441" y="-99.8" font-family="Times,serif" font-size="14.00">TagsModule</text>
</g>
<!-- TagsModule&#45;&gt;AppModule -->
<g id="edge14" class="edge">
<title>TagsModule&#45;&gt;AppModule</title>
<path fill="none" stroke="black" d="M441,-122.31C441,-142.15 441,-171 441,-171 441,-171 1000,-171 1000,-171"/>
<polygon fill="black" stroke="black" points="1000,-174.5 1010,-171 1000,-167.5 1000,-174.5"/>
</g>
<!-- TeamsModule -->
<g id="node14" class="node">
<title>TeamsModule</title>
<polygon fill="#8dd3c7" stroke="black" points="379.37,-122 376.37,-126 355.37,-126 352.37,-122 282.63,-122 282.63,-86 379.37,-86 379.37,-122"/>
<text text-anchor="middle" x="331" y="-99.8" font-family="Times,serif" font-size="14.00">TeamsModule</text>
</g>
<!-- TeamsModule&#45;&gt;AppModule -->
<g id="edge15" class="edge">
<title>TeamsModule&#45;&gt;AppModule</title>
<path fill="none" stroke="black" d="M331,-122.28C331,-143.32 331,-175 331,-175 331,-175 1000.12,-175 1000.12,-175"/>
<polygon fill="black" stroke="black" points="1000.12,-178.5 1010.12,-175 1000.12,-171.5 1000.12,-178.5"/>
</g>
<!-- TransactionsModule -->
<g id="node15" class="node">
<title>TransactionsModule</title>
<polygon fill="#8dd3c7" stroke="black" points="264.58,-122 261.58,-126 240.58,-126 237.58,-122 133.42,-122 133.42,-86 264.58,-86 264.58,-122"/>
<text text-anchor="middle" x="199" y="-99.8" font-family="Times,serif" font-size="14.00">TransactionsModule</text>
</g>
<!-- TransactionsModule&#45;&gt;AppModule -->
<g id="edge16" class="edge">
<title>TransactionsModule&#45;&gt;AppModule</title>
<path fill="none" stroke="black" d="M199,-122.16C199,-144.35 199,-179 199,-179 199,-179 1000.28,-179 1000.28,-179"/>
<polygon fill="black" stroke="black" points="1000.28,-182.5 1010.28,-179 1000.28,-175.5 1000.28,-182.5"/>
</g>
<!-- UsersModule -->
<g id="node16" class="node">
<title>UsersModule</title>
<polygon fill="#8dd3c7" stroke="black" points="115.92,-122 112.92,-126 91.92,-126 88.92,-122 24.08,-122 24.08,-86 115.92,-86 115.92,-122"/>
<text text-anchor="middle" x="70" y="-99.8" font-family="Times,serif" font-size="14.00">UsersModule</text>
</g>
<!-- UsersModule&#45;&gt;AppModule -->
<g id="edge17" class="edge">
<title>UsersModule&#45;&gt;AppModule</title>
<path fill="none" stroke="black" d="M70,-122.32C70,-145.66 70,-183 70,-183 70,-183 1000.12,-183 1000.12,-183"/>
<polygon fill="black" stroke="black" points="1000.12,-186.5 1010.12,-183 1000.12,-179.5 1000.12,-186.5"/>
</g>
</g>
</svg>
