<?xml version="1.0" encoding="UTF-8" standalone="no"?>
<!DOCTYPE svg PUBLIC "-//W3C//DTD SVG 1.1//EN"
 "http://www.w3.org/Graphics/SVG/1.1/DTD/svg11.dtd">
<!-- Generated by graphviz version 2.47.0 (20210316.0004)
 -->
<!-- Title: dependencies Pages: 1 -->
<svg width="504pt" height="284pt"
 viewBox="0.00 0.00 504.00 284.00" xmlns="http://www.w3.org/2000/svg" xmlns:xlink="http://www.w3.org/1999/xlink">
<g id="graph0" class="graph" transform="scale(1 1) rotate(0) translate(4 280)">
<title>dependencies</title>
<polygon fill="white" stroke="transparent" points="-4,4 -4,-280 500,-280 500,4 -4,4"/>
<text text-anchor="start" x="227.01" y="-42.4" font-family="Times-12" font-weight="bold" font-size="14.00">Legend</text>
<polygon fill="#ffffb3" stroke="transparent" points="14,-10 14,-30 34,-30 34,-10 14,-10"/>
<text text-anchor="start" x="37.63" y="-15.4" font-family="Times-12" font-size="14.00"> &#160;Declarations</text>
<polygon fill="#8dd3c7" stroke="transparent" points="127,-10 127,-30 147,-30 147,-10 127,-10"/>
<text text-anchor="start" x="150.73" y="-15.4" font-family="Times-12" font-size="14.00"> &#160;Module</text>
<polygon fill="#80b1d3" stroke="transparent" points="213,-10 213,-30 233,-30 233,-10 213,-10"/>
<text text-anchor="start" x="236.78" y="-15.4" font-family="Times-12" font-size="14.00"> &#160;Bootstrap</text>
<polygon fill="#fdb462" stroke="transparent" points="310,-10 310,-30 330,-30 330,-10 310,-10"/>
<text text-anchor="start" x="333.67" y="-15.4" font-family="Times-12" font-size="14.00"> &#160;Providers</text>
<polygon fill="#fb8072" stroke="transparent" points="406,-10 406,-30 426,-30 426,-10 406,-10"/>
<text text-anchor="start" x="429.73" y="-15.4" font-family="Times-12" font-size="14.00"> &#160;Exports</text>
<g id="clust1" class="cluster">
<title>cluster_UsersModule</title>
<polygon fill="none" stroke="black" stroke-dasharray="1,5" points="38.5,-70 38.5,-268 457.5,-268 457.5,-70 38.5,-70"/>
</g>
<g id="clust6" class="cluster">
<title>cluster_UsersModule_providers</title>
<polygon fill="none" stroke="black" points="309.5,-78 309.5,-130 449.5,-130 449.5,-78 309.5,-78"/>
</g>
<g id="clust4" class="cluster">
<title>cluster_UsersModule_exports</title>
<polygon fill="none" stroke="black" points="180.5,-208 180.5,-260 290.5,-260 290.5,-208 180.5,-208"/>
</g>
<g id="clust3" class="cluster">
<title>cluster_UsersModule_imports</title>
<polygon fill="none" stroke="black" points="46.5,-78 46.5,-130 301.5,-130 301.5,-78 46.5,-78"/>
</g>
<!-- FollowersModule -->
<g id="node1" class="node">
<title>FollowersModule</title>
<polygon fill="#8dd3c7" stroke="black" points="293.04,-122 290.04,-126 269.04,-126 266.04,-122 177.96,-122 177.96,-86 293.04,-86 293.04,-122"/>
<text text-anchor="middle" x="235.5" y="-99.8" font-family="Times,serif" font-size="14.00">FollowersModule</text>
</g>
<!-- UsersModule -->
<g id="node3" class="node">
<title>UsersModule</title>
<polygon fill="#8dd3c7" stroke="black" points="281.42,-187 278.42,-191 257.42,-191 254.42,-187 189.58,-187 189.58,-151 281.42,-151 281.42,-187"/>
<text text-anchor="middle" x="235.5" y="-164.8" font-family="Times,serif" font-size="14.00">UsersModule</text>
</g>
<!-- FollowersModule&#45;&gt;UsersModule -->
<g id="edge1" class="edge">
<title>FollowersModule&#45;&gt;UsersModule</title>
<path fill="none" stroke="black" d="M235.5,-122.11C235.5,-122.11 235.5,-140.99 235.5,-140.99"/>
<polygon fill="black" stroke="black" points="232,-140.99 235.5,-150.99 239,-140.99 232,-140.99"/>
</g>
<!-- PartnersModule -->
<g id="node2" class="node">
<title>PartnersModule</title>
<polygon fill="#8dd3c7" stroke="black" points="160.42,-122 157.42,-126 136.42,-126 133.42,-122 54.58,-122 54.58,-86 160.42,-86 160.42,-122"/>
<text text-anchor="middle" x="107.5" y="-99.8" font-family="Times,serif" font-size="14.00">PartnersModule</text>
</g>
<!-- PartnersModule&#45;&gt;UsersModule -->
<g id="edge2" class="edge">
<title>PartnersModule&#45;&gt;UsersModule</title>
<path fill="none" stroke="black" d="M107.5,-122.11C107.5,-141.34 107.5,-169 107.5,-169 107.5,-169 179.65,-169 179.65,-169"/>
<polygon fill="black" stroke="black" points="179.65,-172.5 189.65,-169 179.65,-165.5 179.65,-172.5"/>
</g>
<!-- UsersService  -->
<g id="node4" class="node">
<title>UsersService </title>
<polygon fill="#fb8072" stroke="black" points="282.35,-252 188.65,-252 188.65,-216 282.35,-216 282.35,-252"/>
<text text-anchor="middle" x="235.5" y="-229.8" font-family="Times,serif" font-size="14.00">UsersService </text>
</g>
<!-- UsersModule&#45;&gt;UsersService  -->
<g id="edge3" class="edge">
<title>UsersModule&#45;&gt;UsersService </title>
<path fill="none" stroke="black" stroke-dasharray="5,2" d="M235.5,-187.11C235.5,-187.11 235.5,-205.99 235.5,-205.99"/>
<polygon fill="black" stroke="black" points="232,-205.99 235.5,-215.99 239,-205.99 232,-205.99"/>
</g>
<!-- UsersService -->
<g id="node5" class="node">
<title>UsersService</title>
<ellipse fill="#fdb462" stroke="black" cx="379.5" cy="-104" rx="61.95" ry="18"/>
<text text-anchor="middle" x="379.5" y="-99.8" font-family="Times,serif" font-size="14.00">UsersService</text>
</g>
<!-- UsersService&#45;&gt;UsersModule -->
<g id="edge4" class="edge">
<title>UsersService&#45;&gt;UsersModule</title>
<path fill="none" stroke="black" d="M379.5,-122.11C379.5,-141.34 379.5,-169 379.5,-169 379.5,-169 291.46,-169 291.46,-169"/>
<polygon fill="black" stroke="black" points="291.46,-165.5 281.46,-169 291.46,-172.5 291.46,-165.5"/>
</g>
</g>
</svg>
